HIERARCHY
ROOT joint_Root
{
	OFFSET 0.0 0.0 0.0
	CHANNELS 6 Xposition Yposition Zposition Zrotation Xrotation Yrotation 
	JOINT Hips
	{
		OFFSET 4.5925 91.4895 -427.239
		CHANNELS 6 Xposition Yposition Zposition Zrotation Xrotation Yrotation 
		JOINT Spine
		{
			OFFSET 15.7357 0.0 0.0
			CHANNELS 6 Xposition Yposition Zposition Zrotation Xrotation Yrotation 
			JOINT Chest
			{
				OFFSET 8.98455 -0.406207 0.0
				CHANNELS 6 Xposition Yposition Zposition Zrotation Xrotation Yrotation 
				JOINT Neck
				{
					OFFSET 16.3773 0.0 0.0
					CHANNELS 6 Xposition Yposition Zposition Zrotation Xrotation Yrotation 
					JOINT Head
					{
						OFFSET 6.45672 0.0 0.0
						CHANNELS 6 Xposition Yposition Zposition Zrotation Xrotation Yrotation 
						End Site
						{
							OFFSET 0.0 0.0 0.0
						}
					}
				}
				JOINT Shoulder_L
				{
					OFFSET 12.9942 -0.242716 4.98039
					CHANNELS 6 Xposition Yposition Zposition Zrotation Xrotation Yrotation 
					JOINT UpperArm_L
					{
						OFFSET 5.34809 0.0 0.0
						CHANNELS 6 Xposition Yposition Zposition Zrotation Xrotation Yrotation 
						JOINT LowerArm_L
						{
							OFFSET 24.3286 1.87007e-05 0.0
							CHANNELS 6 Xposition Yposition Zposition Zrotation Xrotation Yrotation 
							JOINT Hand_L
							{
								OFFSET 22.2916 0.0 0.0
								CHANNELS 6 Xposition Yposition Zposition Zrotation Xrotation Yrotation 
								End Site
								{
									OFFSET 0.0 0.0 0.0
								}
							}
						}
					}
				}
				JOINT Shoulder_R
				{
					OFFSET 12.9945 -0.242716 -4.98039
					CHANNELS 6 Xposition Yposition Zposition Zrotation Xrotation Yrotation 
					JOINT UpperArm_R
					{
						OFFSET -5.34813 0.0 0.0
						CHANNELS 6 Xposition Yposition Zposition Zrotation Xrotation Yrotation 
						JOINT LowerArm_R
						{
							OFFSET -24.3289 0.000322201 0.0
							CHANNELS 6 Xposition Yposition Zposition Zrotation Xrotation Yrotation 
							JOINT Hand_R
							{
								OFFSET -22.2915 -0.000108084 0.0
								CHANNELS 6 Xposition Yposition Zposition Zrotation Xrotation Yrotation 
								End Site
								{
									OFFSET 0.0 0.0 0.0
								}
							}
						}
					}
				}
			}
		}
		JOINT UpperLeg_L
		{
			OFFSET -2.19248 -6.46944 0.0
			CHANNELS 6 Xposition Yposition Zposition Zrotation Xrotation Yrotation 
			JOINT LowerLeg_L
			{
				OFFSET 39.0811 0.0 -1.23785e-05
				CHANNELS 6 Xposition Yposition Zposition Zrotation Xrotation Yrotation 
				JOINT Foot_L
				{
					OFFSET 40.9854 0.0 -1.26872e-05
					CHANNELS 6 Xposition Yposition Zposition Zrotation Xrotation Yrotation 
					JOINT Toes_L
					{
						OFFSET 11.7543 0.0 0.0
						CHANNELS 6 Xposition Yposition Zposition Zrotation Xrotation Yrotation 
						End Site
						{
							OFFSET 0.0 0.0 0.0
						}
					}
				}
			}
		}
		JOINT UpperLeg_R
		{
			OFFSET -2.19251 6.46944 0.0
			CHANNELS 6 Xposition Yposition Zposition Zrotation Xrotation Yrotation 
			JOINT LowerLeg_R
			{
				OFFSET -39.0811 -0.00228153 -0.0401928
				CHANNELS 6 Xposition Yposition Zposition Zrotation Xrotation Yrotation 
				JOINT Foot_R
				{
					OFFSET -40.9854 0.0 0.0
					CHANNELS 6 Xposition Yposition Zposition Zrotation Xrotation Yrotation 
					JOINT Toes_R
					{
						OFFSET -11.7543 0.0 0.0
						CHANNELS 6 Xposition Yposition Zposition Zrotation Xrotation Yrotation 
						End Site
						{
							OFFSET 0.0 0.0 0.0
						}
					}
				}
			}
		}
	}
}
MOTION
Frames:	4
Frame Time:	0.0333333
0.000000 0.000000 0.000000 0.000000 0.000000 -0.000000 -1.429670 91.917800 -0.482000 88.112000 1.496590 1.078690 15.735700 0.000005 -0.000001 93.442300 86.409700 -95.826600 8.984550 -0.406207 -0.000000 -0.581370 0.604621 -4.763160 16.377300 -0.000001 -0.000001 0.111854 -5.593930 6.145770 6.456720 -0.000001 -0.000000 -6.380170 -3.191410 -1.591680 12.994200 -0.242716 4.980390 -91.444400 3.665800 -68.476900 5.348090 -0.000007 -0.000001 -64.614600 21.028400 -5.443500 24.328600 0.000019 0.000005 7.593990 20.703100 -20.662200 22.291600 -0.000001 0.000005 12.245900 5.122890 4.584000 12.994500 -0.242716 -4.980390 93.519300 -9.115100 -68.783500 -5.348130 -0.000001 -0.000004 -44.140300 -68.735200 -79.229100 -24.328900 0.000322 -0.000009 -8.842600 -5.803440 -56.974900 -22.291500 -0.000108 -0.000004 21.212300 5.537060 -8.111350 -2.192480 -6.469440 -0.000000 -174.749000 -11.352500 -7.405050 39.081100 -0.000007 -0.000012 -0.117289 0.244975 25.584200 40.985400 -0.000006 -0.000013 0.166299 8.154000 -67.201700 11.754300 -0.000000 0.000003 -0.000069 -0.000748 -16.606500 -2.192510 6.469440 -0.000001 179.334000 27.195500 175.074000 -39.081100 -0.002282 -0.040193 0.012503 -0.021345 23.289500 -40.985400 0.000008 0.000006 7.767620 15.649100 -68.792700 -11.754300 -0.000006 -0.000006 -0.002790 -0.038206 -18.126800
0.000000 0.000000 0.000000 0.000000 0.000000 -0.000000 -1.172250 91.894000 -0.522631 88.185500 0.548055 1.334260 15.735700 0.000005 -0.000001 93.725000 86.283200 -95.940300 8.984550 -0.406207 -0.000000 -0.331961 0.639297 -4.426240 16.377300 -0.000001 -0.000001 0.079145 -5.115420 5.792380 6.456720 -0.000001 -0.000000 -6.052530 -2.937980 -1.338600 12.994200 -0.242716 4.980390 -91.530800 3.869850 -68.398500 5.348090 -0.000007 -0.000001 -64.806900 22.218900 -6.340780 24.328600 0.000019 0.000005 7.183340 20.748900 -19.582800 22.291600 -0.000001 0.000005 12.198400 5.126600 4.497430 12.994500 -0.242716 -4.980390 92.865000 -7.625850 -69.338500 -5.348130 -0.000001 -0.000004 -40.250300 -64.722200 -71.929400 -24.328900 0.000322 -0.000009 -9.195000 -4.887850 -62.236500 -22.291500 -0.000108 -0.000004 21.725900 5.530640 -7.824400 -2.192480 -6.469440 -0.000000 -174.967000 -11.754700 -7.052150 39.081100 -0.000007 -0.000012 -0.116091 0.241268 25.695600 40.985400 -0.000006 -0.000013 0.245986 7.602590 -67.364800 11.754300 -0.000000 0.000003 -0.000063 -0.000694 -16.604400 -2.192510 6.469440 -0.000001 178.896000 26.725700 175.129000 -39.081100 -0.002282 -0.040193 -0.000643 0.009074 23.564700 -40.985400 0.000008 0.000006 7.414790 16.275400 -68.716000 -11.754300 -0.000006 -0.000006 -0.002757 -0.037816 -18.110900
0.000000 0.000000 0.000000 0.000000 0.000000 -0.000000 -0.940566 91.867800 -0.560837 88.196500 -0.372032 1.581100 15.735700 0.000005 -0.000001 93.159500 86.167700 -95.184100 8.984550 -0.406207 -0.000000 -0.099861 0.561229 -4.046180 16.377300 -0.000001 -0.000001 -0.003406 -4.744810 5.434850 6.456720 -0.000001 -0.000000 -5.687410 -2.657410 -1.142140 12.994200 -0.242716 4.980390 -91.607000 4.059360 -68.381500 5.348090 -0.000007 -0.000001 -65.069100 23.219600 -6.919020 24.328600 0.000019 0.000005 7.032570 20.682300 -19.253300 22.291600 -0.000001 0.000005 12.124900 5.127180 4.483170 12.994500 -0.242716 -4.980390 92.161400 -6.102820 -70.457300 -5.348130 -0.000001 -0.000004 -35.628600 -60.001600 -62.976700 -24.328900 0.000322 -0.000009 -9.453310 -3.811750 -68.232500 -22.291500 -0.000108 -0.000004 22.464800 5.525860 -7.616350 -2.192480 -6.469440 -0.000000 -175.081000 -12.231800 -6.764430 39.081100 -0.000007 -0.000012 -0.116172 0.239632 25.864000 40.985400 -0.000006 -0.000013 0.320475 7.169090 -67.528700 11.754300 -0.000000 0.000003 -0.000067 -0.000731 -16.605800 -2.192510 6.469440 -0.000001 178.568000 26.316600 175.199000 -39.081100 -0.002282 -0.040193 -0.009426 0.028884 23.801400 -40.985400 0.000008 0.000006 7.222080 16.858100 -68.683700 -11.754300 -0.000006 -0.000006 -0.002745 -0.037685 -18.105600
0.000000 0.000000 0.000000 0.000000 0.000000 -0.000000 -0.746058 91.833500 -0.568787 88.200500 -1.281640 1.917410 15.735700 0.000005 -0.000001 92.807000 86.008100 -94.658500 8.984550 -0.406207 -0.000000 0.219098 0.512740 -3.701510 16.377300 -0.000001 -0.000001 -0.122697 -4.341640 4.962960 6.456720 -0.000001 -0.000000 -5.303570 -2.479030 -0.856844 12.994200 -0.242716 4.980390 -91.667100 4.207860 -68.363700 5.348090 -0.000007 -0.000001 -65.135900 24.460600 -7.558200 24.328600 0.000019 0.000005 6.909340 20.087300 -19.434200 22.291600 -0.000001 0.000005 11.716800 5.133390 4.337250 12.994500 -0.242716 -4.980390 91.405300 -4.239480 -71.646500 -5.348130 -0.000001 -0.000004 -31.554900 -54.059700 -54.246400 -24.328900 0.000322 -0.000009 -9.444960 -2.740580 -73.964000 -22.291500 -0.000108 -0.000004 23.211500 5.519750 -7.353460 -2.192480 -6.469440 -0.000000 -175.141000 -12.767900 -6.360660 39.081100 -0.000007 -0.000012 -0.115182 0.235600 26.053500 40.985400 -0.000006 -0.000013 0.394426 6.793060 -67.736300 11.754300 -0.000000 0.000003 -0.000061 -0.000673 -16.603600 -2.192510 6.469440 -0.000001 178.214000 25.922400 175.364000 -39.081100 -0.002282 -0.040193 -0.021966 0.056653 24.047000 -40.985400 0.000008 0.000006 6.907270 17.477800 -68.619600 -11.754300 -0.000006 -0.000006 -0.002552 -0.035421 -18.013500
